HIERARCHY
ROOT Hips
{
	OFFSET 0.000000 0.000000 0.000000
	CHANNELS 6 Xposition Yposition Zposition Zrotation Yrotation Xrotation 
	JOINT LHipJoint
	{
		OFFSET 0.000000 0.000000 0.000000
		CHANNELS 3 Zrotation Yrotation Xrotation
		JOINT LeftUpLeg
		{
			OFFSET 1.363060 -1.794630 0.839290
			CHANNELS 3 Zrotation Yrotation Xrotation
			JOINT LeftLeg
			{
				OFFSET 2.448110 -6.726130 0.000000
				CHANNELS 3 Zrotation Yrotation Xrotation
				JOINT LeftFoot
				{
					OFFSET 2.562200 -7.039590 0.000000
					CHANNELS 3 Zrotation Yrotation Xrotation
					JOINT LeftToeBase
					{
						OFFSET 0.157640 -0.433110 2.322550
						CHANNELS 3 Zrotation Yrotation Xrotation
						End Site
						{
							OFFSET 0.000000 0.000000 0.000000
						}
					}
				}
			}
		}
	}
	JOINT RHipJoint
	{
		OFFSET 0.000000 0.000000 0.000000
		CHANNELS 3 Zrotation Yrotation Xrotation
		JOINT RightUpLeg
		{
			OFFSET -1.305520 -1.794630 0.839290
			CHANNELS 3 Zrotation Yrotation Xrotation
			JOINT RightLeg
			{
				OFFSET -2.542530 -6.985550 0.000000
				CHANNELS 3 Zrotation Yrotation Xrotation
				JOINT RightFoot
				{
					OFFSET -2.568260 -7.056230 0.000000
					CHANNELS 3 Zrotation Yrotation Xrotation
					JOINT RightToeBase
					{
						OFFSET -0.164730 -0.452590 2.363150
						CHANNELS 3 Zrotation Yrotation Xrotation
						End Site
						{
							OFFSET 0.000000 0.000000 0.000000
						}
					}
				}
			}
		}
	}
}
MOTION
Frames: 31
Frame Time: 0.008333
7.383837 19.713247 0.892272 49.269189 -86.598550 -22.762822 -11.596745 3.140969 4.071428 -5.624399 -0.497849 -25.807381 0.733559 0.733915 38.224075 2.383893 9.729715 33.680207 5.397801 0.000000 -62.559100 11.114952 -2.565293 0.670175 5.498120 -12.798476 -29.158084 0.083422 -2.386343 40.733192 -1.423280 -6.040741 20.182016 -2.676600 -0.000000 -80.316300
7.177628 19.835796 0.879309 47.704000 -86.644177 -21.296663 -11.583046 2.965788 3.811825 -5.860016 -0.044057 -26.785716 0.694809 0.808168 38.902394 2.361262 9.303041 33.836968 5.141700 -0.000000 -62.908100 11.063313 -2.420209 0.519192 5.808984 -12.774401 -29.909679 0.129497 -2.440141 40.787278 -1.410827 -6.109696 19.677807 -2.694700 0.000000 -80.268500
6.970305 19.949036 0.866248 45.424896 -86.624755 -19.055494 -11.559344 2.799511 3.584955 -6.100859 0.360468 -27.795407 0.646935 0.869485 39.206265 2.332845 8.826572 34.161232 4.875100 0.000000 -63.075100 11.011994 -2.276875 0.379590 6.141899 -12.793790 -30.675118 0.190717 -2.476677 40.568885 -1.391084 -6.129460 19.339123 -2.706500 -0.000001 -80.396700
6.761464 20.052598 0.852946 42.782003 -86.541198 -16.397576 -11.526278 2.645980 3.393948 -6.359532 0.698851 -28.813317 0.590463 0.918684 39.143100 2.297229 8.347316 34.537596 4.615301 -0.000000 -63.092600 10.959790 -2.137745 0.254182 6.482050 -12.844369 -31.453241 0.267359 -2.499338 40.130555 -1.359424 -6.078326 19.069900 -2.695600 -0.000001 -80.347900
6.550896 20.145541 0.839491 40.034473 -86.395249 -13.576491 -11.484860 2.506858 3.243876 -6.643249 0.951120 -29.849037 0.526967 0.957625 38.752761 2.252603 7.909423 34.842822 4.380301 -0.000000 -63.003200 10.904749 -2.005105 0.151804 6.825941 -12.899021 -32.263286 0.358400 -2.509957 39.517913 -1.316253 -5.967387 18.808812 -2.663500 0.000000 -80.202000
6.338663 20.227331 0.825961 37.428370 -86.192724 -10.843928 -11.436290 2.383532 3.132346 -6.958718 1.109918 -30.894038 0.457202 0.989443 38.078670 2.196275 7.547859 34.955254 4.185300 -0.000000 -62.751399 10.845740 -1.880645 0.075007 7.164405 -12.939975 -33.107072 0.463769 -2.511429 38.774750 -1.261030 -5.796370 18.496499 -2.606000 -0.000000 -79.891200
6.125023 20.297443 0.812603 35.071739 -85.941183 -8.302381 -11.380280 2.274637 3.060978 -7.304811 1.153017 -31.953364 0.381975 1.014636 37.157823 2.129820 7.308661 34.824587 4.060400 0.000000 -62.882500 10.781987 -1.763700 0.028248 7.494532 -12.942770 -33.996967 0.581986 -2.504326 37.926086 -1.197989 -5.593927 18.124071 -2.536000 -0.000000 -79.794300
5.910494 20.355964 0.799549 33.056535 -85.653155 -6.064280 -11.317540 2.181237 3.017599 -7.683441 1.099611 -33.002833 0.297854 1.037352 36.038130 2.048514 7.178736 34.350941 3.991199 0.000000 -62.836000 10.714076 -1.654137 0.004844 7.803379 -12.909807 -34.911690 0.714245 -2.491537 37.003233 -1.124998 -5.341452 17.651501 -2.442400 0.000000 -79.514100
5.695535 20.402424 0.787000 31.362279 -85.341728 -4.114680 -11.247570 2.101201 2.996818 -8.088820 0.953790 -34.035512 0.200857 1.057207 34.750988 1.953406 7.152440 33.530043 3.974100 0.000000 -62.697800 10.642211 -1.549810 0.001652 8.088189 -12.836140 -35.843546 0.859775 -2.472451 36.010341 -1.045380 -5.055861 17.102458 -2.334900 0.000000 -79.210100
5.480539 20.437249 0.775099 29.959918 -85.021068 -2.433286 -11.169815 2.031156 2.992538 -8.514163 0.724714 -35.034939 0.086358 1.071011 33.308319 1.848597 7.217570 32.419163 4.003200 0.000001 -62.669700 10.566898 -1.448001 0.012759 8.345520 -12.724576 -36.776890 1.017805 -2.445653 34.938902 -0.962008 -4.750335 16.517010 -2.222200 0.000000 -78.988100
5.265955 20.460538 0.763872 28.788506 -84.705052 -0.969295 -11.084475 1.967612 2.996860 -8.953393 0.438743 -35.993914 -0.050828 1.075945 31.729521 1.736793 7.331139 31.084999 4.051600 -0.000001 -62.538201 10.488359 -1.346922 0.032302 8.577365 -12.581732 -37.694935 1.187591 -2.409095 33.774980 -0.876791 -4.434002 15.939949 -2.110600 0.000001 -78.835900
5.052002 20.472672 0.753300 27.817335 -84.405343 0.300553 -10.991840 1.905958 3.005142 -9.401868 0.112164 -36.897786 -0.212038 1.065678 30.003748 1.626234 7.480618 29.678801 4.118400 -0.000000 -62.657100 10.407330 -1.244358 0.054855 8.784191 -12.415755 -38.582213 1.367779 -2.359994 32.495752 -0.792041 -4.120320 15.429608 -2.008400 0.000001 -78.874900
4.838725 20.473623 0.743296 26.967568 -84.132614 1.448294 -10.894465 1.844074 3.007482 -9.861728 -0.204209 -37.758763 -0.399910 1.039990 28.168661 1.515331 7.590673 28.269374 4.160000 -0.000000 -62.293601 10.323744 -1.141257 0.078136 8.975584 -12.232586 -39.425806 1.557643 -2.295677 31.088062 -0.707780 -3.812474 15.019583 -1.917500 0.000000 -78.934900
4.626114 20.463309 0.733656 26.235580 -83.893244 2.474154 -10.794385 1.778724 3.001394 -10.335284 -0.497226 -38.568477 -0.609430 0.993984 26.206719 1.411758 7.672233 27.038993 4.197300 -0.000000 -62.064600 10.238772 -1.036716 0.100615 9.153018 -12.036774 -40.218709 1.755202 -2.213442 29.535481 -0.625466 -3.522573 14.754944 -1.843299 -0.000000 -79.174800
4.414024 20.441586 0.724227 25.584878 -83.691584 3.410547 -10.695194 1.709439 2.980619 -10.831944 -0.732126 -39.338869 -0.837511 0.929179 24.145482 1.313348 7.691038 26.069985 4.217800 0.000000 -61.770200 10.153059 -0.932169 0.123472 9.323144 -11.830326 -40.958801 1.958870 -2.111771 27.841912 -0.544590 -3.251459 14.646981 -1.784900 -0.000000 -79.511000
4.202276 20.407927 0.714824 24.993358 -83.529577 4.277063 -10.600244 1.636375 2.940842 -11.363415 -0.884150 -40.084235 -1.080542 0.848469 22.016082 1.216725 7.625163 25.419720 4.215700 0.000001 -61.386800 10.067381 -0.828913 0.149480 9.490532 -11.612418 -41.652680 2.166580 -1.990606 26.027276 -0.464465 -2.997187 14.690482 -1.739200 -0.000000 -79.885800
3.990676 20.362254 0.705205 24.465709 -83.406094 5.068215 -10.511681 1.560034 2.881124 -11.941964 -0.947132 -40.815757 -1.334363 0.754825 19.845331 1.119640 7.474374 25.127375 4.194600 -0.000000 -61.161100 9.982914 -0.727422 0.181401 9.656054 -11.383497 -42.316163 2.375751 -1.852117 24.129642 -0.384354 -2.754087 14.865356 -1.701101 0.000000 -80.308000
3.778859 20.303568 0.695279 23.983789 -83.319933 5.805146 -10.430814 1.481917 2.800170 -12.581156 -0.908482 -41.560746 -1.598754 0.654071 17.691311 1.015360 7.206217 25.149956 4.131200 -0.000001 -60.938200 9.900068 -0.629254 0.223478 9.824173 -11.140844 -42.973366 2.584091 -1.700541 22.205960 -0.302722 -2.509821 15.131275 -1.662400 0.000001 -80.677200
3.566799 20.231733 0.685052 23.528746 -83.269240 6.507763 -10.357064 1.403395 2.698988 -13.293426 -0.767749 -42.349819 -1.874284 0.551998 15.615580 0.898344 6.791520 25.418140 3.999700 -0.000000 -60.658100 9.818681 -0.535352 0.279068 9.999544 -10.882448 -43.656412 2.789441 -1.542420 20.324337 -0.218109 -2.250488 15.443820 -1.614001 -0.000000 -80.940600
3.354313 20.146699 0.674322 23.169646 -83.246470 7.116021 -10.287003 1.325111 2.588333 -14.077925 -0.574642 -43.187692 -2.157234 0.448411 13.625919 0.771969 6.270121 25.908434 3.815800 -0.000000 -60.803300 9.740420 -0.444138 0.348643 10.175602 -10.615873 -44.405799 2.989704 -1.386632 18.553768 -0.129067 -1.958001 15.767484 -1.545500 -0.000000 -81.204000
3.141437 20.048444 0.663368 22.819217 -83.253180 7.722212 -10.218714 1.249997 2.467338 -14.945779 -0.312776 -44.131311 -2.453542 0.352434 11.823838 0.625558 5.556403 26.459273 3.513500 0.000000 -60.774500 9.662805 -0.359223 0.436123 10.368831 -10.332545 -45.254524 3.185169 -1.240652 16.956246 -0.033559 -1.618856 16.064436 -1.449800 0.000000 -81.302700
2.928293 19.937107 0.652350 22.467283 -83.286161 8.346314 -10.148620 1.180137 2.343292 -15.895235 -0.012385 -45.208752 -2.763103 0.267498 10.249226 0.458088 4.641302 26.994102 3.079200 -0.000000 -60.659100 9.585290 -0.281617 0.542693 10.584098 -10.030549 -46.234623 3.376222 -1.111585 15.571972 0.069572 -1.224828 16.327759 -1.323100 0.000000 -81.288300
2.714969 19.813342 0.641066 22.240887 -83.334418 8.876746 -10.071590 1.114454 2.237123 -16.891000 0.222189 -46.390091 -3.076567 0.186172 8.840540 0.281784 3.635648 27.537285 2.577000 -0.000001 -61.028200 9.511146 -0.207797 0.664423 10.806180 -9.722166 -47.375595 3.561997 -1.006659 14.421154 0.180968 -0.766649 16.578110 -1.160400 -0.000000 -81.364399
2.501819 19.677580 0.629642 22.106004 -83.396707 9.353467 -9.986209 1.053915 2.152205 -17.918446 0.373319 -47.696568 -3.393445 0.112704 7.634735 0.094389 2.521430 28.019777 1.993200 0.000000 -61.565500 9.440053 -0.139262 0.801885 11.039100 -9.399168 -48.684786 3.742807 -0.928290 13.496345 0.300691 -0.249574 16.851044 -0.964200 -0.000000 -81.511100
2.289010 19.529790 0.618241 21.993054 -83.473467 9.849777 -9.892986 1.000441 2.086580 -18.970432 0.444642 -49.154643 -3.713269 0.054659 6.679699 -0.106764 1.270485 28.398631 1.311600 -0.000000 -62.183600 9.371377 -0.078150 0.955677 11.287952 -9.050529 -50.152346 3.919245 -0.875648 12.767700 0.428123 0.313942 17.195013 -0.739300 -0.000000 -81.743500
2.076810 19.370561 0.606545 22.023985 -83.554463 10.247921 -9.791630 0.949130 2.053659 -19.988458 0.351878 -50.706115 -4.022515 0.004907 5.895736 -0.307193 0.009382 28.753536 0.609900 0.000000 -63.078399 9.309470 -0.019283 1.119389 11.527336 -8.683765 -51.763947 4.087970 -0.848291 12.193804 0.561700 0.917800 17.675485 -0.484100 0.000001 -82.170700
1.865346 19.199715 0.594385 22.193696 -83.635813 10.548152 -9.684911 0.897755 2.049787 -20.943674 0.091563 -52.337402 -4.314502 -0.032026 5.294393 -0.503044 -1.237943 29.099466 -0.098300 -0.000000 -64.129100 9.255478 0.039036 1.289511 11.744177 -8.295132 -53.484956 4.246225 -0.842256 11.727609 0.699148 1.550033 18.342081 -0.198100 -0.000000 -82.782100
1.654796 19.017371 0.581561 22.538116 -83.711470 10.705945 -9.576422 0.840616 2.075343 -21.782299 -0.361233 -54.004608 -4.576192 -0.056642 4.845768 -0.683312 -2.388585 29.494474 -0.766100 0.000000 -65.393101 9.210941 0.101575 1.459482 11.915569 -7.886980 -55.275479 4.389305 -0.852968 11.324573 0.836760 2.199598 19.233780 0.121800 0.000000 -83.631700
1.445241 18.823296 0.567784 23.049975 -83.776168 10.711831 -9.469357 0.775168 2.118720 -22.484602 -0.979051 -55.695917 -4.801186 -0.060368 4.596216 -0.846269 -3.438892 29.914350 -1.392000 -0.000000 -66.446500 9.175272 0.171231 1.623763 12.021327 -7.461250 -57.092360 4.512739 -0.877397 10.971301 0.971709 2.867704 20.336853 0.483800 -0.000000 -84.487200
1.236799 18.617191 0.552770 23.788570 -83.821976 10.495066 -9.367160 0.693463 2.181878 -22.982281 -1.787587 -57.358989 -4.972543 -0.046248 4.510430 -0.977407 -4.271428 30.403181 -1.906600 0.000000 -67.489700 9.148090 0.254497 1.774394 12.029913 -7.024454 -58.905696 4.609289 -0.914285 10.672098 1.098365 3.546241 21.619897 0.890400 0.000001 -85.445100
1.029349 18.398643 0.536284 24.758117 -83.844355 10.040706 -9.271852 0.592649 2.259205 -23.244146 -2.769082 -58.986723 -5.081260 -0.009163 4.628730 -1.072418 -4.847720 30.911454 -2.280399 -0.000000 -68.272800 9.126508 0.354016 1.907672 11.915955 -6.576354 -60.701780 4.672850 -0.966847 10.479078 1.212758 4.231693 22.986063 1.339600 0.000000 -86.309800
